<svg width="85" height="17" viewBox="0 0 85 17" fill="none" xmlns="http://www.w3.org/2000/svg">
<path d="M0.770597 14V3.81818H4.97656C5.73887 3.81818 6.39678 3.96733 6.95028 4.26562C7.5071 4.56061 7.93632 4.97325 8.23793 5.50355C8.53954 6.03054 8.69034 6.6437 8.69034 7.34304C8.69034 8.04569 8.53622 8.66051 8.22798 9.1875C7.92306 9.71117 7.48722 10.1172 6.92045 10.4055C6.35369 10.6939 5.68087 10.8381 4.90199 10.8381H2.30682V8.89915H4.4446C4.81581 8.89915 5.12571 8.83452 5.37429 8.70526C5.62618 8.57599 5.81676 8.39536 5.94602 8.16335C6.07528 7.92803 6.13991 7.65459 6.13991 7.34304C6.13991 7.02817 6.07528 6.75639 5.94602 6.5277C5.81676 6.29569 5.62618 6.11671 5.37429 5.99077C5.1224 5.86482 4.8125 5.80185 4.4446 5.80185H3.23153V14H0.770597ZM9.90341 14V3.81818H17.0028V5.81676H12.3643V7.90483H16.6399V9.90838H12.3643V12.0014H17.0028V14H9.90341ZM22.3075 14H18.544V3.81818H22.3026C23.34 3.81818 24.2332 4.02202 24.9822 4.42969C25.7346 4.83404 26.3146 5.41738 26.7223 6.17969C27.13 6.93868 27.3338 7.84683 27.3338 8.90412C27.3338 9.96473 27.13 10.8762 26.7223 11.6385C26.3179 12.4008 25.7396 12.9858 24.9872 13.3935C24.2348 13.7978 23.3416 14 22.3075 14ZM21.005 11.902H22.2131C22.7831 11.902 23.2654 11.8059 23.6598 11.6136C24.0575 11.4181 24.3575 11.1016 24.5597 10.6641C24.7652 10.2232 24.8679 9.6366 24.8679 8.90412C24.8679 8.17164 24.7652 7.5883 24.5597 7.15412C24.3542 6.71662 24.0509 6.40175 23.6499 6.20952C23.2521 6.01397 22.7616 5.91619 22.1783 5.91619H21.005V11.902ZM28.7706 14V3.81818H32.9766C33.7389 3.81818 34.3968 3.95573 34.9503 4.23082C35.5071 4.5026 35.9363 4.8937 36.2379 5.40412C36.5395 5.91122 36.6903 6.51278 36.6903 7.20881C36.6903 7.91477 36.5362 8.51468 36.228 9.00852C35.9197 9.49905 35.4822 9.87358 34.9155 10.1321C34.3487 10.3873 33.6776 10.5149 32.902 10.5149H30.2422V8.57599H32.4446C32.8158 8.57599 33.1257 8.52794 33.3743 8.43182C33.6262 8.33239 33.8168 8.18324 33.946 7.98438C34.0753 7.7822 34.1399 7.52367 34.1399 7.20881C34.1399 6.89394 34.0753 6.63376 33.946 6.42827C33.8168 6.21946 33.6262 6.06368 33.3743 5.96094C33.1224 5.85488 32.8125 5.80185 32.4446 5.80185H31.2315V14H28.7706ZM34.5028 9.34659L37.0384 14H34.3537L31.8679 9.34659H34.5028ZM47.6502 8.90909C47.6502 10.0294 47.4348 10.9789 47.0039 11.7578C46.573 12.5367 45.9897 13.1283 45.2539 13.5327C44.5214 13.937 43.6995 14.1392 42.788 14.1392C41.8732 14.1392 41.0496 13.9354 40.3171 13.5277C39.5846 13.12 39.003 12.5284 38.5721 11.7528C38.1445 10.974 37.9308 10.026 37.9308 8.90909C37.9308 7.78883 38.1445 6.83925 38.5721 6.06037C39.003 5.28149 39.5846 4.68987 40.3171 4.28551C41.0496 3.88115 41.8732 3.67898 42.788 3.67898C43.6995 3.67898 44.5214 3.88115 45.2539 4.28551C45.9897 4.68987 46.573 5.28149 47.0039 6.06037C47.4348 6.83925 47.6502 7.78883 47.6502 8.90909ZM45.1346 8.90909C45.1346 8.24621 45.0401 7.68608 44.8512 7.22869C44.6656 6.77131 44.3971 6.42495 44.0458 6.18963C43.6978 5.95431 43.2785 5.83665 42.788 5.83665C42.3008 5.83665 41.8815 5.95431 41.5302 6.18963C41.1789 6.42495 40.9087 6.77131 40.7198 7.22869C40.5342 7.68608 40.4414 8.24621 40.4414 8.90909C40.4414 9.57197 40.5342 10.1321 40.7198 10.5895C40.9087 11.0469 41.1789 11.3932 41.5302 11.6286C41.8815 11.8639 42.3008 11.9815 42.788 11.9815C43.2785 11.9815 43.6978 11.8639 44.0458 11.6286C44.3971 11.3932 44.6656 11.0469 44.8512 10.5895C45.0401 10.1321 45.1346 9.57197 45.1346 8.90909Z" fill="white"/>
<path d="M42.7706 14V3.81818H46.9766C47.7389 3.81818 48.3968 3.96733 48.9503 4.26562C49.5071 4.56061 49.9363 4.97325 50.2379 5.50355C50.5395 6.03054 50.6903 6.6437 50.6903 7.34304C50.6903 8.04569 50.5362 8.66051 50.228 9.1875C49.9231 9.71117 49.4872 10.1172 48.9205 10.4055C48.3537 10.6939 47.6809 10.8381 46.902 10.8381H44.3068V8.89915H46.4446C46.8158 8.89915 47.1257 8.83452 47.3743 8.70526C47.6262 8.57599 47.8168 8.39536 47.946 8.16335C48.0753 7.92803 48.1399 7.65459 48.1399 7.34304C48.1399 7.02817 48.0753 6.75639 47.946 6.5277C47.8168 6.29569 47.6262 6.11671 47.3743 5.99077C47.1224 5.86482 46.8125 5.80185 46.4446 5.80185H45.2315V14H42.7706ZM54.3643 3.81818V14H51.9034V3.81818H54.3643ZM55.8745 14V12.598L60.8212 5.81676H55.8794V3.81818H63.9334V5.22017L58.9867 12.0014H63.9284V14H55.8745ZM65.4038 14V12.598L70.3505 5.81676H65.4087V3.81818H73.4627V5.22017L68.516 12.0014H73.4577V14H65.4038ZM77.1703 14H74.5254L77.9608 3.81818H81.237L84.6724 14H82.0275L79.6362 6.38352H79.5566L77.1703 14ZM76.8173 9.9929H82.3457V11.8622H76.8173V9.9929Z" fill="#CC0707"/>
</svg>
